<svg id="Layer_1" data-name="Layer 1" xmlns="http://www.w3.org/2000/svg" viewBox="0 0 338.67 493.14"><defs><style>.cls-1{fill:#fff;}</style></defs><path d="M342.57,110.36c-2.48,4.78-4.92,9.37-7.24,13.69q-2.71,5-5.48,10a142.53,142.53,0,0,1,68.5,121.72c0,78.6-63.91,142.51-142.48,142.51-.62,0-1.22,0-1.84-.05-8.21,7.94-17.07,16.31-26.21,24.52a169.52,169.52,0,0,0,28.05,2.37c93.36,0,169.32-76,169.32-169.35A169.37,169.37,0,0,0,342.57,110.36Z" transform="translate(-86.52 -9)"/><path d="M181.81,377.43a142.53,142.53,0,0,1-68.44-121.71c0-78.56,63.91-142.47,142.5-142.47.65,0,1.28,0,1.93,0,8.13-7.87,16.95-16.21,26.18-24.51a169.17,169.17,0,0,0-28.11-2.38c-93.38,0-169.35,76-169.35,169.32a169.42,169.42,0,0,0,82.59,145.37c2.47-4.78,4.9-9.36,7.22-13.68C178.13,384.06,180,380.74,181.81,377.43Z" transform="translate(-86.52 -9)"/><path d="M290.35,236.26c-8.38-2.95-16.82-5.75-25.25-8.56q-6.78-2.2-13.57-4.39C265,203.92,278,184.19,290.49,164c9.74-16,19.32-32.21,28.3-48.86s17.61-33.57,25.08-51.41C328.23,75.1,313.77,87.41,299.63,100s-27.66,25.62-41,38.8c-26.54,26.5-51.71,54.09-75.81,82.52L157,251.7l39.24,14.5q12.51,4.62,25.11,9c8.38,2.95,16.81,5.77,25.24,8.58q6.74,2.21,13.49,4.38c-13.47,19.38-26.51,39.09-39,59.28-9.73,16.05-19.32,32.21-28.28,48.87s-17.59,33.59-25,51.45c15.67-11.36,30.14-23.66,44.29-36.22s27.67-25.61,41-38.78c26.54-26.51,51.71-54.1,75.78-82.55l25.88-30.59-39.38-14.39C307.11,242.17,298.75,239.14,290.35,236.26Z" transform="translate(-86.52 -9)"/><path class="cls-1" d="M321.91,227.57c-9.42-3.44-17.36-6.3-25.46-9.08-5.05-1.78-10.2-3.53-15.31-5.24,9-13.45,17.38-26.48,25.35-39.4,8.83-14.55,19.11-31.75,28.84-49.8,8.15-15.14,17.59-33.28,25.87-53.07L387.14,9,332.81,48.53c-17.35,12.63-32.82,26-45.66,37.4-15.33,13.64-29.7,27.6-41.73,39.46-25.84,25.81-51.7,54-77,83.77l-25.76,30.4L125.35,260l25.17,9.3,39.24,14.5c8.17,3,16.73,6.08,25.45,9.11,5.08,1.78,10.21,3.53,15.3,5.25-9,13.44-17.38,26.46-25.34,39.38-8.94,14.73-19.28,32.06-28.84,49.84-8.14,15.15-17.57,33.3-25.82,53.11l-25.67,61.62,54-39.18c17.37-12.6,32.87-26,45.73-37.37,15.1-13.4,29.58-27.46,41.75-39.46,25.86-25.82,51.72-54,76.95-83.8l25.88-30.58,17.38-20.55L361.29,242Zm-61.8,60.58q-6.75-2.17-13.49-4.38c-8.43-2.81-16.86-5.63-25.24-8.58s-16.77-5.91-25.11-9L157,251.7l25.77-30.4c24.1-28.43,49.27-56,75.81-82.52,13.36-13.18,26.89-26.23,41-38.8s28.6-24.88,44.24-36.26c-7.47,17.84-16.12,34.75-25.08,51.41S300.23,148,290.49,164c-12.45,20.2-25.5,39.93-39,59.32q6.79,2.17,13.57,4.39c8.43,2.81,16.87,5.61,25.25,8.56s16.76,5.91,25.11,9l39.38,14.39L329,290.2c-24.07,28.45-49.24,56-75.78,82.55-13.37,13.17-26.89,26.23-41,38.78s-28.62,24.86-44.29,36.22c7.44-17.86,16.08-34.78,25-51.45s18.55-32.82,28.28-48.87C233.6,327.24,246.64,307.53,260.11,288.15Z" transform="translate(-86.52 -9)"/></svg>